<?xml version="1.0" encoding="UTF-8"?>
<svg id="svg17" width="86px" height="86px" enable-background="new 0 0 86 86" version="1.1" viewBox="0 0 86 86" xml:space="preserve" xmlns="http://www.w3.org/2000/svg" xmlns:cc="http://creativecommons.org/ns#" xmlns:dc="http://purl.org/dc/elements/1.1/" xmlns:rdf="http://www.w3.org/1999/02/22-rdf-syntax-ns#" xmlns:xlink="http://www.w3.org/1999/xlink"><metadata id="metadata23"><rdf:RDF><cc:Work rdf:about=""><dc:format>image/svg+xml</dc:format><dc:type rdf:resource="http://purl.org/dc/dcmitype/StillImage"/><dc:date>2020-2022</dc:date><dc:creator><cc:Agent><dc:title>Mirian Margiani</dc:title></cc:Agent></dc:creator><dc:rights><cc:Agent><dc:title>CC-BY-SA 4.0</dc:title></cc:Agent></dc:rights><cc:license rdf:resource="http://creativecommons.org/licenses/by-sa/4.0/"/><dc:description>Based on harbour-parkmeecrazy.png by Karsten Todtermuschke and Mures Andone: https://git.code.sf.net/p/parkmeecrazyforsailfishos/code</dc:description></cc:Work><cc:License rdf:about="http://creativecommons.org/licenses/by-sa/4.0/"><cc:permits rdf:resource="http://creativecommons.org/ns#Reproduction"/><cc:permits rdf:resource="http://creativecommons.org/ns#Distribution"/><cc:requires rdf:resource="http://creativecommons.org/ns#Notice"/><cc:requires rdf:resource="http://creativecommons.org/ns#Attribution"/><cc:permits rdf:resource="http://creativecommons.org/ns#DerivativeWorks"/><cc:requires rdf:resource="http://creativecommons.org/ns#ShareAlike"/></cc:License></rdf:RDF></metadata><defs id="defs21"><linearGradient id="SVGID_1_" x1="12.806" x2="73.193" y1="73.194" y2="12.807" gradientUnits="userSpaceOnUse">
		<stop id="stop3" stop-color="#191b3f" offset="0"/>
		<stop id="stop5" stop-color="#294077" offset="1"/>
	</linearGradient><clipPath id="clipPath1207"><circle id="circle1209" transform="rotate(90)" cx="43" cy="43" r="42.7"/></clipPath><clipPath id="clipPath1211"><circle id="circle1213" transform="scale(-1)" cx="43" cy="43" r="42.7"/></clipPath><clipPath id="clipPath1215"><circle id="circle1217" transform="rotate(90)" cx="43" cy="43" r="42.7"/></clipPath><clipPath id="clipPath1219"><circle id="circle1221" transform="scale(-1)" cx="43" cy="43" r="42.7"/></clipPath><clipPath id="clipPath1223"><circle id="circle1225" transform="scale(-1)" cx="43" cy="43" r="42.7"/></clipPath><clipPath id="clipPath1227"><circle id="circle1229" transform="scale(-1)" cx="43" cy="43" r="42.7"/></clipPath><clipPath id="clipPath1248"><rect id="rect1250" transform="rotate(90)" x="-6.875" y="-81.291" width="45" height="15" ry="2" fill="#090ac4" stroke-linecap="round" stroke-linejoin="round" stroke-width="5.5264"/></clipPath><linearGradient id="linearGradient1458" x1="12.806" x2="73.193" y1="73.194" y2="12.807" gradientUnits="userSpaceOnUse" xlink:href="#SVGID_1_"/></defs>


<g id="layer1"><circle id="circle1454" cx="43" cy="43" r="42.7" fill="url(#SVGID_1_)"/><rect id="rect1141" transform="scale(-1)" x="-79.291" y="-72.125" width="30" height="15" ry="2" clip-path="url(#clipPath1227)" fill="#2d8955"/><circle id="circle1235" cx="43" cy="43" r="42.7" clip-path="url(#clipPath1248)" fill="#37ba70"/><rect id="rect1143" transform="scale(-1)" x="-30.291" y="-23.125" width="30" height="15" ry="2" clip-path="url(#clipPath1211)" fill="#916ed8"/><rect id="rect1145" transform="scale(-1)" x="-77.291" y="-89.125" width="45" height="15" ry="2" clip-path="url(#clipPath1223)" fill="#5b5cc3"/><rect id="rect1147" transform="scale(-1)" x="-30.291" y="-72.125" width="45" height="15" ry="2" clip-path="url(#clipPath1219)" fill="#e5b300"/><rect id="rect1149" transform="rotate(-90)" x="-55.125" y=".29102" width="30" height="15" ry="2" clip-path="url(#clipPath1215)" fill="#8a0"/><rect id="rect1153" transform="rotate(-90)" x="-23.125" y="49.291" width="30" height="15" ry="2" clip-path="url(#clipPath1207)" fill="#edbf0f"/><rect id="rect876" transform="rotate(-90)" x="-72.124" y="32.292" width="30" height="15" ry="2" fill="#a598c1"/><rect id="rect874" transform="scale(-1)" x="-47.292" y="-40.124" width="30" height="15" ry="2" fill="#d63933"/><g id="g1448" transform="translate(109.16 -91.524)"><rect id="rect1405" x="77.291" y="89.125" width="96.647" height="90.36" ry="2" fill="#0f0e0d"/><rect id="rect1417" x="81.392" y="105.23" width="23.236" height="13.42" ry="2" fill="#916ed8"/><rect id="rect1419" x="82.55" y="123.61" width="11.271" height="20.055" ry="2" fill="#8a0"/><rect id="rect1421" x="102.19" y="123.57" width="18.293" height="5.6717" ry="2" fill="#d63933"/><rect id="rect1423" x="116.55" y="139.12" width="5.3996" height="20.574" ry="2" fill="#edbf0f"/><rect id="rect1425" x="79.717" y="153.71" width="29.997" height="6.9131" ry="2" fill="#edbf0f"/><rect id="rect1427" x="114.8" y="164.83" width="34.76" height="7.7993" ry="2" fill="#090ac4"/><rect id="rect1429" x="128.83" y="151.51" width="19.72" height="7.2075" ry="2" fill="#2d8955"/><rect id="rect1431" x="142.85" y="92.624" width="8.5851" height="40.404" ry="2" fill="#450"/><rect id="rect1433" x="157.31" y="94.409" width="8.5972" height="18.4" ry="2" fill="#4c84b2"/><rect id="rect1435" x="130.54" y="84.54" width="5.05" height="32.069" ry="2" fill="#edbf0f"/></g><path id="circle8" d="m42.965 0.30078a42.7 42.7 0 0 0-42.664 42.699 42.7 42.7 0 0 0 42.699 42.699 42.7 42.7 0 0 0 42.699-42.699 42.7 42.7 0 0 0-42.699-42.699 42.7 42.7 0 0 0-0.035156 0zm0.035156 2.9258a39.774 39.774 0 0 1 39.773 39.773 39.774 39.774 0 0 1-39.773 39.773 39.774 39.774 0 0 1-39.773-39.773 39.774 39.774 0 0 1 39.773-39.773z" fill="url(#linearGradient1458)"/></g></svg>
